<svg xmlns="http://www.w3.org/2000/svg" viewBox="0 0 818.55 108.99"><defs><style>.cls-1{fill:#ff9000;}.cls-2{fill:#06c;}</style></defs><title>rf-magazine</title><g id="Layer_2" data-name="Layer 2"><g id="Layer_1-2" data-name="Layer 1"><g id="_Group_" data-name="&lt;Group&gt;"><rect class="cls-1" y="97.79" width="340.46" height="10.87"/></g><g id="_Group_2" data-name="&lt;Group&gt;"><rect class="cls-2" x="375" y="97.79" width="113.27" height="10.87"/></g><g id="_Group_3" data-name="&lt;Group&gt;"><rect class="cls-2" x="705" y="97.79" width="113.27" height="10.87"/></g><g id="_Group_4" data-name="&lt;Group&gt;"><rect class="cls-1" x="275.26" y="25.43" width="17.73" height="61.52"/></g><g id="_Group_5" data-name="&lt;Group&gt;"><path class="cls-1" d="M340.46,39.84V25.21H322.35V0H304.24V62.9c0,10.38,2,15.54,7.67,19.71,4.92,3.45,9,4.34,19.6,4.34h8.95V72.21h-6.1c-9.31,0-12-2.48-12-11V39.84Z"/></g><path class="cls-1" d="M36.22,25.39V43.66a15.76,15.76,0,0,0-2.51-.2,15.39,15.39,0,0,0-15.6,15.19V87H0V58.77c0-19,13.91-33.42,32.6-33.42.21,0,2.93,0,3.21,0Z"/><path class="cls-2" d="M745.79,65.19a31.55,31.55,0,0,1-30.2,21.73C698.15,86.93,684,73.13,684,56.13s14.15-30.78,31.58-30.78a31.49,31.49,0,0,1,30.19,21.73H728.39a15.07,15.07,0,0,0-11.72-5.55,14.6,14.6,0,1,0,0,29.19,15.06,15.06,0,0,0,11.72-5.53Z"/><g id="_Group_6" data-name="&lt;Group&gt;"><path class="cls-2" d="M430.06,20a10.14,10.14,0,0,0,10.27-10,10.27,10.27,0,0,0-20.54,0,10.14,10.14,0,0,0,10.27,10"/></g><g id="_Group_7" data-name="&lt;Group&gt;"><path class="cls-2" d="M639.43,25.35C620,25.35,604.85,40,604.85,58.62v28.3h18V58.36a16.29,16.29,0,0,1,32.56,0V86.93h18V60c0-20.06-14.3-34.63-34-34.63"/></g><g id="_Group_8" data-name="&lt;Group&gt;"><path class="cls-2" d="M483.69,25.35c-19.38,0-34.57,14.62-34.57,33.27v28.3h18V58.36a16.29,16.29,0,0,1,32.56,0V86.93h18V60c0-20.06-14.3-34.63-34-34.63"/></g><g id="_Group_9" data-name="&lt;Group&gt;"><path class="cls-2" d="M787.79,72.6a17.24,17.24,0,0,1-16.52-11.83h47.28c0-9.06-1.5-19.19-8.75-26.47a31,31,0,1,0-22,52.63,29.93,29.93,0,0,0,17-5.07,32.57,32.57,0,0,0,12-14.49h-17c-2.87,3.47-6.58,5.23-12,5.23m-.28-32.48c9.17-.09,14.67,6,15.74,10.83H771.87c1-5,6.36-10.83,15.65-10.83"/></g><g id="_Group_10" data-name="&lt;Group&gt;"><path class="cls-2" d="M394.73,25.35v.89c0-8.7,2.74-11.23,12.21-11.23h5.41V0h-8.18c-10.85,0-15,.9-20,4.42-5.77,4.26-7.8,9.5-7.8,20.06v.87h-14.2V39.83h14.2v47.1h18.33V40.06h25.2V86.93h18V25.35H394.73Z"/></g><path class="cls-1" d="M79.72,25.35H77.87a30.77,30.77,0,0,0-27.3,16.56l-.11.21A30.79,30.79,0,0,0,92.95,83q.62-.35,1.22-.72v4.66h18.11V58.5C112.28,39.3,98.58,25.35,79.72,25.35Zm-.25,46.79A15.19,15.19,0,1,1,95,57,15.39,15.39,0,0,1,79.47,72.14Z"/><path class="cls-1" d="M155.7,86.93h1.85a30.77,30.77,0,0,0,27.3-16.56l.11-.21A30.79,30.79,0,0,0,142.48,29.3q-.62.35-1.22.72V0H123.14V53.78C123.14,73,136.84,86.93,155.7,86.93ZM156,40.14a15.19,15.19,0,1,1-15.58,15.18A15.39,15.39,0,0,1,156,40.14Z"/><path class="cls-1" d="M231.76,86.93h1.85a30.77,30.77,0,0,0,27.3-16.56l.11-.21A30.79,30.79,0,0,0,218.54,29.3q-.62.35-1.22.72V0H199.2V53.78C199.2,73,212.9,86.93,231.76,86.93ZM232,40.14a15.19,15.19,0,1,1-15.58,15.18A15.39,15.39,0,0,1,232,40.14Z"/><path class="cls-2" d="M561.43,25.35h-1.85a30.77,30.77,0,0,0-27.3,16.56l-.11.21A30.79,30.79,0,0,0,574.66,83q.62-.35,1.22-.72v4.66H594V58.5C594,39.3,580.29,25.35,561.43,25.35Zm-.25,46.79A15.19,15.19,0,1,1,576.76,57,15.39,15.39,0,0,1,561.18,72.14Z"/><path class="cls-2" d="M518.4,92v16.85h-4.1v-9.5l-3.91,9.5h-3l-3.91-9.5v9.5h-4.1V92H504l4.85,11.62L513.7,92Z"/><path class="cls-2" d="M542.3,108.84l-.94-2.83h-6l-.94,2.83H530l5.86-16.9h5l5.83,16.9Zm-6-6h4l-2-6Z"/><path class="cls-2" d="M559.84,106.55a8.87,8.87,0,0,1,0-12.36A8.47,8.47,0,0,1,566,91.76a8.66,8.66,0,0,1,5,1.49,7.76,7.76,0,0,1,3,4.13h-4.9A3.22,3.22,0,0,0,566,95.52a4.29,4.29,0,0,0-3.32,1.32,5.74,5.74,0,0,0,0,7.06,4.2,4.2,0,0,0,3.25,1.32,3.73,3.73,0,0,0,2.39-.73,3.53,3.53,0,0,0,1.24-2h-4.75V99.41H574v3.12a8.2,8.2,0,0,1-2.52,4.3,7.59,7.59,0,0,1-2.44,1.56,8,8,0,0,1-3.08.6A8.47,8.47,0,0,1,559.84,106.55Z"/><path class="cls-2" d="M597,108.84,596,106h-6l-.94,2.83h-4.37l5.86-16.9h5l5.83,16.9Zm-6-6h4l-2-6Z"/><path class="cls-2" d="M624.26,92v3.12l-7.18,10.61h7.18v3.12h-11.9v-3.12l7.18-10.61h-7.18V92Z"/><path class="cls-2" d="M636.86,108.84V92H641v16.85Z"/><path class="cls-2" d="M665.14,91.95h4.1v16.9h-4.1l-6.86-10.63v10.63h-4.1V91.95h4.1l6.86,10.63Z"/><path class="cls-2" d="M692.64,91.95v3.12h-6.1v3.62h5.38v3.12h-5.38v3.91h6.1v3.12h-10.2V91.95Z"/></g></g></svg>